<?xml version="1.0" encoding="utf-8"?>
<!-- Generator: Adobe Illustrator 24.1.2, SVG Export Plug-In . SVG Version: 6.00 Build 0)  -->
<svg version="1.1" id="Capa_1" xmlns="http://www.w3.org/2000/svg" xmlns:xlink="http://www.w3.org/1999/xlink" x="0px" y="0px"
	 viewBox="0 0 512 512" style="enable-background:new 0 0 512 512;" xml:space="preserve">
<style type="text/css">
	.st0{fill:#3D8CE4;}
	.st1{fill:#0D6FDD;}
	.st2{fill:#9BFCFF;}
	.st3{fill:#FFFFFF;}
</style>
<g>
	<g>
		<g>
			<path class="st0" d="M31,137h450v60H31V137z"/>
		</g>
	</g>
	<path class="st1" d="M256,137h225v60H256V137z"/>
	<g>
		<g>
			<path class="st0" d="M31,317h450v60H31V317z"/>
		</g>
	</g>
	<path class="st1" d="M256,317h225v60H256V317z"/>
	<g>
		<path class="st1" d="M0,0v152h512V0H0z"/>
	</g>
	<path class="st0" d="M256,0h256v152H256V0z"/>
	<g>
		<g>
			<g>
				<path class="st2" d="M61,62h30v30H61V62z"/>
			</g>
		</g>
	</g>
	<g>
		<g>
			<path class="st2" d="M121,62h30v30h-30V62z"/>
		</g>
	</g>
	<g>
		<g>
			<g>
				<path class="st2" d="M181,62h30v30h-30V62z"/>
			</g>
		</g>
	</g>
	<g>
		<g>
			<path class="st1" d="M301,62h150v30H301V62z"/>
		</g>
	</g>
	<g>
		<path class="st1" d="M0,182v150h512V182H0z"/>
	</g>
	<path class="st0" d="M256,182h256v150H256V182z"/>
	<g>
		<g>
			<path class="st1" d="M301,242h150v30H301V242z"/>
		</g>
	</g>
	<g>
		<path class="st1" d="M0,362v150h512V362H0z"/>
	</g>
	<path class="st0" d="M256,362h256v150H256V362z"/>
	<g>
		<g>
			<g>
				<path class="st2" d="M61,422h30v30H61V422z"/>
			</g>
		</g>
	</g>
	<g>
		<g>
			<g>
				<path class="st2" d="M121,422h30v30h-30V422z"/>
			</g>
		</g>
	</g>
	<g>
		<g>
			<g>
				<path class="st2" d="M181,422h30v30h-30V422z"/>
			</g>
		</g>
	</g>
	<g>
		<path class="st1" d="M301,422h150v30H301V422z"/>
	</g>
</g>
<path class="st3" d="M85.2,237.2v-11.7l31.7,18.3v48.3l-31.7,18.3v-55l10,5v31.7l11.7-6.7v-36.7L85.2,237.2z M150.2,265.5v6.7l10-5
	v-18.3l-21.7,11.7v-11.7l21.7-13.3v-10l-33.3,18.3v35L150.2,265.5z M103.5,310.5h18.3l38.3-21.7v-10L103.5,310.5z M113.5,228.8
	l8.3,6.7l38.3-21.7v-10L113.5,228.8z"/>
</svg>
