<?xml version="1.0" encoding="utf-8"?>
<!-- Generator: Adobe Illustrator 25.0.0, SVG Export Plug-In . SVG Version: 6.00 Build 0)  -->
<svg version="1.1" id="Layer_1" xmlns="http://www.w3.org/2000/svg" xmlns:xlink="http://www.w3.org/1999/xlink" x="0px" y="0px"
	 viewBox="0 0 66.2 64" style="enable-background:new 0 0 66.2 64;" xml:space="preserve">
<style type="text/css">
	.st0{fill:url(#SVGID_1_);}
	.st1{fill:url(#SVGID_2_);}
	.st2{fill:url(#SVGID_3_);}
	.st3{fill:url(#SVGID_4_);}
	.st4{fill:url(#SVGID_5_);}
	.st5{fill:url(#SVGID_6_);}
	.st6{fill:url(#SVGID_7_);}
	.st7{fill:url(#SVGID_8_);}
	.st8{fill:url(#SVGID_9_);}
</style>
<g>
	<g id="Icons_copy">
		<linearGradient id="SVGID_1_" gradientUnits="userSpaceOnUse" x1="3.5993" y1="1.2977" x2="57.0253" y2="54.7237">
			<stop  offset="0" style="stop-color:#FFB700"/>
			<stop  offset="1" style="stop-color:#FFD91D"/>
		</linearGradient>
		<path class="st0" d="M64.6,2.5l-8.2-1.3c-0.6-0.1-1.1,0.3-1.2,0.9l0,0l-5.4,34.8h-3.5l1.2-9.3c0.1-0.6-0.3-1.1-0.9-1.2l0.4-2.6
			l2-1.5c0.2-0.2,0.4-0.4,0.4-0.7l1.8-11.2l0,0l0,0l0.3-2c0.1-0.6-0.3-1.1-0.9-1.2l-8.2-1.3c-0.6-0.1-1.1,0.3-1.2,0.9L39.3,20
			c0,0.3,0,0.6,0.2,0.8l1.5,2l-0.4,2.6l0,0c-0.6-0.1-1.1,0.3-1.2,0.8l-2,10.6h-1.7l-0.2-9.3c0-0.6-0.5-1-1-1v-2.7l1.8-1.8
			c0.2-0.2,0.3-0.4,0.3-0.7V8c0-0.6-0.4-1-1-1c-0.2,0-0.3,0-0.4,0.1l-8.3,4.1c-0.3,0.2-0.6,0.5-0.6,0.9v9.3c0,0.3,0.1,0.6,0.3,0.7
			l1.8,1.8v2.7c-0.6,0-1,0.4-1,1L27,36.9h-2.4c-1-3.7-1.7-6.7-2.2-9.6l-3-16.3l1-0.2c0.1,0,0.1,0,0.2-0.1l8.8-3.7
			c0.4-0.2,0.7-0.7,0.6-1.1l-0.8-4.1c-0.1-0.5-0.5-0.8-1-0.9l-9.5-0.3c-0.1,0-0.1,0-0.2,0L1.3,3.9C0.7,4,0.3,4.5,0.4,5.1l1.5,8.1
			c0.1,0.6,0.7,0.9,1.2,0.8l0,0l8.1-1.5l3,16.3c0.4,2.4,0.8,5,1.2,8h-2l-2.8-15.1c-0.3-1.7-1.9-2.8-3.6-2.5
			c-1.7,0.3-2.8,1.9-2.5,3.6l2.6,13.9H2.5c-0.6,0-1,0.4-1,1V42c0,0.6,0.4,1,1,1h1v16.5c0,2.3,1.9,4.1,4.1,4.1h7.2v-2.1H7.6
			c-1.1,0-2.1-0.9-2.1-2.1V43.1h5.2v5.2c0,0.6,0.4,1,1,1h3.1v2.1h2.1v-2.1H20c0.6,0,1-0.4,1-1v-5.2h3.1v7.7h2.1v-7.7h12.4v7.4h2.1
			v-7.4h3.1v5.2c0,0.6,0.4,1,1,1h3.1v2.1H50v-2.1H53c0.6,0,1-0.4,1-1v-5.2h5.2v7.3h2.1v-7.3h1c0.6,0,1-0.4,1-1V38c0-0.6-0.4-1-1-1
			h-2.1l5.2-33.2C65.6,3.1,65.2,2.6,64.6,2.5L64.6,2.5z M45.4,28.3l-0.3,2.1l-4.3-0.7l0.4-2L45.4,28.3z M49.4,9.1l-0.2,1
			c-0.1,0.6-0.6,1-1.2,0.9L44,10.3c-0.6-0.1-1-0.6-0.9-1.2l0,0l0.2-1L49.4,9.1z M42.9,22l-1.5-2l1.2-7.9c0.3,0.2,0.7,0.3,1,0.3
			l4.1,0.7c0.2,0,0.3,0,0.5,0s0.4,0,0.6-0.1l-1.2,7.9l-2,1.5c-0.2,0.2-0.4,0.4-0.4,0.7l-0.5,3.1l-2-0.3l0.5-3.1
			C43.1,22.5,43,22.2,42.9,22L42.9,22z M40.5,31.7l4.3,0.7l-0.6,4.5h-4.7L40.5,31.7z M33.4,28.6l0.1,2.1h-4.3l0.1-2.1H33.4z
			 M34.5,9.6v2.9l-6.2,3.1v-2.9L34.5,9.6z M30,22.7L28.3,21v-3.1l6.2-3.1V21l-1.8,1.8c-0.2,0.2-0.3,0.4-0.3,0.7v3.1h-2.1v-3.1
			C30.3,23.2,30.2,22.9,30,22.7L30,22.7z M29.2,32.8h4.4l0.1,4.1h-4.6L29.2,32.8z M2.6,5.8l16.2-3l8.6,0.3l0.4,2.4l-7.9,3.4l-16.2,3
			L2.6,5.8z M16.3,28.5l-3-16.3l4.1-0.8l3,16.3c0.5,2.7,1.2,5.7,2.1,9.2h-4.9C17.2,33.7,16.8,31,16.3,28.5L16.3,28.5z M9.8,28.3
			l-2.1,0.4l-0.4-2l2-0.4L9.8,28.3z M6.7,21.8c0.3-0.5,1-0.6,1.4-0.3c0.2,0.2,0.4,0.4,0.4,0.7l0.4,2l-2,0.4l-0.4-2
			C6.5,22.3,6.6,22,6.7,21.8L6.7,21.8z M8.1,30.7l2-0.4l1.2,6.6H9.2L8.1,30.7z M19,47.3h-2.1v-2.1h-2.1v2.1h-2.1v-4.1H19V47.3z
			 M52.1,47.3H50v-2.1H48v2.1h-2.1v-4.1h6.2V47.3z M61.4,41.1H3.5V39h57.9V41.1z M58.2,36.9h-6.3l0.4-2.8l2,0.3l0.3-2l-2-0.3
			l0.5-3.1l2,0.3l0.3-2l-2-0.3l0.5-3.1l2,0.3l0.3-2l-2-0.3l0.5-3.1l2,0.3l0.3-2l-2-0.3l0.5-3.1l2,0.3l0.3-2l-2-0.3l0.5-3.1l2,0.3
			l0.3-2l-2-0.3l0.5-3.1l6.1,1L58.2,36.9z"/>
	</g>
	<g>
		<g>
			<linearGradient id="SVGID_2_" gradientUnits="userSpaceOnUse" x1="16.6652" y1="58.9076" x2="18.1782" y2="58.9076">
				<stop  offset="0" style="stop-color:#FFB700"/>
				<stop  offset="1" style="stop-color:#FFBD1A"/>
			</linearGradient>
			<path class="st1" d="M17.4,54.1c-0.4,0-0.8,0.3-0.8,0.8v8c0,0.4,0.3,0.8,0.8,0.8c0.4,0,0.8-0.3,0.8-0.8v-8
				C18.2,54.5,17.8,54.1,17.4,54.1z"/>
		</g>
	</g>
	<g>
		<g>
			<linearGradient id="SVGID_3_" gradientUnits="userSpaceOnUse" x1="21.4795" y1="58.9076" x2="22.9926" y2="58.9076">
				<stop  offset="0" style="stop-color:#FFB700"/>
				<stop  offset="1" style="stop-color:#FFBD1A"/>
			</linearGradient>
			<path class="st2" d="M22.2,54.1c-0.4,0-0.8,0.3-0.8,0.8v8c0,0.4,0.3,0.8,0.8,0.8c0.4,0,0.8-0.3,0.8-0.8v-8
				C23,54.5,22.6,54.1,22.2,54.1z"/>
		</g>
	</g>
	<g>
		<g>
			<linearGradient id="SVGID_4_" gradientUnits="userSpaceOnUse" x1="26.3282" y1="58.9076" x2="27.8413" y2="58.9076">
				<stop  offset="0" style="stop-color:#FFB700"/>
				<stop  offset="1" style="stop-color:#FFBD1A"/>
			</linearGradient>
			<path class="st3" d="M27.1,54.1c-0.4,0-0.8,0.3-0.8,0.8v8c0,0.4,0.3,0.8,0.8,0.8c0.4,0,0.8-0.3,0.8-0.8v-8
				C27.8,54.5,27.5,54.1,27.1,54.1z"/>
		</g>
	</g>
	<g>
		<g>
			<linearGradient id="SVGID_5_" gradientUnits="userSpaceOnUse" x1="31.1425" y1="58.9076" x2="32.6556" y2="58.9076">
				<stop  offset="0" style="stop-color:#FFB700"/>
				<stop  offset="1" style="stop-color:#FFBD1A"/>
			</linearGradient>
			<path class="st4" d="M31.9,54.1c-0.4,0-0.8,0.3-0.8,0.8v8c0,0.4,0.3,0.8,0.8,0.8c0.4,0,0.8-0.3,0.8-0.8v-8
				C32.7,54.5,32.3,54.1,31.9,54.1z"/>
		</g>
	</g>
	<g>
		<g>
			<linearGradient id="SVGID_6_" gradientUnits="userSpaceOnUse" x1="35.9569" y1="58.9076" x2="37.47" y2="58.9076">
				<stop  offset="0" style="stop-color:#FFB700"/>
				<stop  offset="1" style="stop-color:#FFBD1A"/>
			</linearGradient>
			<path class="st5" d="M36.7,54.1c-0.4,0-0.8,0.3-0.8,0.8v8c0,0.4,0.3,0.8,0.8,0.8c0.4,0,0.8-0.3,0.8-0.8v-8
				C37.5,54.5,37.1,54.1,36.7,54.1z"/>
		</g>
	</g>
	<g>
		<g>
			<linearGradient id="SVGID_7_" gradientUnits="userSpaceOnUse" x1="40.5649" y1="55.9502" x2="46.8923" y2="55.9502">
				<stop  offset="0" style="stop-color:#FFB700"/>
				<stop  offset="1" style="stop-color:#FFBD1A"/>
			</linearGradient>
			<path class="st6" d="M43.7,52.8c-1.8,0-3.2,1.4-3.2,3.2s1.4,3.2,3.2,3.2s3.2-1.4,3.2-3.2S45.5,52.8,43.7,52.8z M43.7,57.6
				c-0.9,0-1.7-0.8-1.7-1.7c0-0.9,0.8-1.7,1.7-1.7c0.9,0,1.7,0.8,1.7,1.7C45.4,56.8,44.7,57.6,43.7,57.6z"/>
		</g>
	</g>
	<g>
		<g>
			<linearGradient id="SVGID_8_" gradientUnits="userSpaceOnUse" x1="55.0423" y1="55.9502" x2="61.3697" y2="55.9502">
				<stop  offset="0" style="stop-color:#FFB700"/>
				<stop  offset="1" style="stop-color:#FFBD1A"/>
			</linearGradient>
			<path class="st7" d="M58.2,52.8c-1.8,0-3.2,1.4-3.2,3.2s1.4,3.2,3.2,3.2s3.2-1.4,3.2-3.2S60,52.8,58.2,52.8z M58.2,57.6
				c-0.9,0-1.7-0.8-1.7-1.7c0-0.9,0.8-1.7,1.7-1.7s1.7,0.8,1.7,1.7C59.9,56.8,59.1,57.6,58.2,57.6z"/>
		</g>
	</g>
	<g>
		<g>
			<linearGradient id="SVGID_9_" gradientUnits="userSpaceOnUse" x1="47.8208" y1="55.9502" x2="54.1482" y2="55.9502">
				<stop  offset="0" style="stop-color:#FFB700"/>
				<stop  offset="1" style="stop-color:#FFBD1A"/>
			</linearGradient>
			<path class="st8" d="M51,52.8c-1.8,0-3.2,1.4-3.2,3.2s1.4,3.2,3.2,3.2s3.2-1.4,3.2-3.2S52.7,52.8,51,52.8z M51,57.6
				c-0.9,0-1.7-0.8-1.7-1.7c0-0.9,0.8-1.7,1.7-1.7c0.9,0,1.7,0.8,1.7,1.7C52.6,56.8,51.9,57.6,51,57.6z"/>
		</g>
	</g>
</g>
</svg>
