<svg xmlns="http://www.w3.org/2000/svg" baseProfile="tiny" version="1.2" viewBox="0 0 251 64"><defs/><linearGradient id="a" x1="0" x2="45" y1="32" y2="32" gradientUnits="userSpaceOnUse"><stop offset="0" stop-color="#0c70de"/><stop offset="1" stop-color="#2f4dbd"/></linearGradient><path fill="url(#a)" d="M0 19.6v-6.9l19.1 11v29.2C19 53 0 63.9 0 63.6V31.1c.1-.1 5.6 2.9 6.1 3.1v19.1a245 245 0 017-3.9V27L0 19.6zm38.7 17.5v4.3L45 38V26l-13.3 8.2V27l13.1-7.8v-6.4L25.6 23.6l.1 21.2 13-7.7zM11 64l11.5-.2 22.4-12.7v-6.3C44 45.2 11.2 63.7 11 64zm6-48.6l5.2 3.6L44.9 5.9V0L17 15.4z"/><g fill="#1C1B28"><path d="M55.6 41.7c-.3-.3-.4-.6-.4-.9V23.2c0-.4.1-.7.4-.9.3-.3.6-.4.9-.4h5.8a10 10 0 0110.3 10.2c0 1.7-.4 3.3-1.2 4.9a9.8 9.8 0 01-9.1 5.3h-5.8c-.4-.2-.7-.3-.9-.6zm6.4-2.1c1.6 0 3-.3 4.2-1a6.6 6.6 0 002.8-2.7c.7-1.1 1-2.5 1-4s-.3-2.8-1-4a8 8 0 00-2.8-2.7c-1.2-.6-2.6-1-4.2-1h-4.2v15.3H62zM76.6 41.9c-.3-.3-.4-.6-.4-.9V23.2c0-.4.1-.7.4-.9.3-.3.6-.4.9-.4h6.7c2.6 0 4.6.5 5.9 1.6 1.3 1.1 2 2.5 2 4.3a5.5 5.5 0 01-3.8 5.3c1.4.4 2.3 1.2 2.9 2.6.5 1.4.8 2.7.8 4V41c0 .4-.1.7-.4.9-.3.3-.6.4-.9.4-.4 0-.7-.1-1-.4-.2-.2-.4-.6-.4-.9v-.9c0-1-.1-1.9-.3-2.7-.2-.8-.6-1.6-1.2-2.2-.7-.6-1.6-1-3-1h-6v6.7c0 .4-.1.7-.4.9-.3.3-.6.4-.9.4l-.9-.3zm7.5-10.2c1.7 0 3-.3 4-1s1.5-1.6 1.5-2.8c0-1.2-.4-2-1.3-2.7-.8-.6-2.3-.9-4.3-.9h-5.1v7.4h5.2zM96.7 41.9c-.3-.3-.4-.6-.4-.9V23.1c0-.4.1-.7.4-.9.3-.3.6-.4.9-.4.4 0 .7.1.9.4.3.3.4.6.4.9V41c0 .4-.1.7-.4.9s-.6.4-.9.4l-.9-.4zM109.1 41.9c-.3-.3-.4-.6-.4-.9V24.4h-5.9l-.9-.3c-.3-.2-.3-.5-.3-.9s.1-.6.3-.9c.2-.2.5-.4.9-.4h14.4c.3 0 .6.1.9.4.2.2.4.5.4.9s-.1.6-.4.9c-.2.2-.5.3-.9.3h-5.9V41c0 .4-.1.7-.4.9-.3.3-.6.4-.9.4-.4-.1-.7-.2-.9-.4zM121.4 41.7c-.3-.3-.4-.6-.4-.9V23.2c0-.4.1-.7.4-.9.3-.3.6-.4.9-.4h11.6c.3 0 .6.1.9.4.2.2.4.5.4.9s-.1.6-.4.9c-.2.2-.5.3-.9.3h-10.3v6.4h9.2c.3 0 .6.1.9.4.2.2.4.5.4.9s-.1.6-.4.9c-.2.2-.5.3-.9.3h-9.2v6.4h10.3c.3 0 .6.1.9.4.2.2.4.5.4.9s-.1.6-.4.9c-.2.2-.5.3-.9.3h-11.6c-.4-.1-.7-.2-.9-.5zM146.5 41l-.6-.5c-.2-.2-.2-.5-.2-.7l.3-.9c.2-.2.5-.4.9-.4l.6.1c1.8.8 3.7 1.2 5.7 1.2 3.4 0 5.1-1.1 5.1-3.3 0-.6-.2-1.1-.7-1.4-.4-.4-1-.7-1.6-.9l-2.7-.8a29 29 0 01-3.8-1.2c-1-.4-1.8-.9-2.5-1.7-.7-.8-1-1.8-1-3a5.5 5.5 0 013.5-5.1 10 10 0 014.1-.8c2.1 0 4 .3 5.8 1 .5.2.8.6.8 1.2 0 .3-.1.6-.3.8a1 1 0 01-.8.4l-.5-.1a15 15 0 00-4.7-.8c-1.5 0-2.8.3-3.7.9-1 .6-1.4 1.4-1.4 2.4 0 .7.2 1.3.7 1.7.5.4 1 .8 1.7 1l2.8.8c1.5.4 2.8.7 3.7 1.1.9.4 1.7.9 2.4 1.7.7.8 1 1.8 1 3.1 0 1.1-.3 2.1-.9 2.9-.6.9-1.5 1.5-2.6 2s-2.4.7-3.9.7c-2.8 0-5.1-.5-7.2-1.4zM169.7 41.9c-.3-.3-.4-.6-.4-.9V24.4h-5.9l-.9-.3c-.3-.2-.3-.5-.3-.9s.1-.6.3-.9c.2-.2.5-.4.9-.4h14.4c.3 0 .6.1.9.4.2.2.4.5.4.9s-.1.6-.4.9c-.2.2-.5.3-.9.3h-5.9V41c0 .4-.1.7-.4.9-.3.3-.6.4-.9.4-.4-.1-.7-.2-.9-.4zM185.9 41.5a7.9 7.9 0 01-3.1-2.6 7.6 7.6 0 01-1.2-4.4V23.1c0-.4.1-.7.4-.9.3-.3.6-.4.9-.4.4 0 .7.1.9.4.3.3.4.6.4.9v11.5c0 1.2.3 2.1.8 3 .5.8 1.2 1.4 2.1 1.8a6.7 6.7 0 005.6 0c.9-.4 1.6-1 2.1-1.8s.8-1.8.8-3V23.1c0-.4.1-.7.4-.9.3-.3.6-.4.9-.4.4 0 .7.1.9.4.3.3.4.6.4.9v11.4c0 1.7-.4 3.2-1.2 4.4a7 7 0 01-3.1 2.6 9.3 9.3 0 01-8 0zM203.3 41.7c-.3-.3-.4-.6-.4-.9V23.2c0-.4.1-.7.4-.9.3-.3.6-.4.9-.4h5.8a10 10 0 0110.3 10.2c0 1.7-.4 3.3-1.2 4.9a9.8 9.8 0 01-9.1 5.3h-5.8l-.9-.6zm6.4-2.1c1.6 0 3-.3 4.2-1a6.6 6.6 0 002.8-2.7c.7-1.1 1-2.5 1-4s-.3-2.8-1-4a8 8 0 00-2.8-2.7c-1.2-.6-2.6-1-4.2-1h-4.2v15.3h4.2zM224.3 41.9c-.3-.3-.4-.6-.4-.9V23.1c0-.4.1-.7.4-.9.3-.3.6-.4.9-.4.4 0 .7.1.9.4.3.3.4.6.4.9V41c0 .4-.1.7-.4.9-.3.3-.6.4-.9.4l-.9-.4zM235.2 41.1a9 9 0 01-3.5-3.7 12 12 0 010-10.8 9 9 0 013.5-3.7c1.5-.9 3.3-1.3 5.3-1.3s3.8.4 5.3 1.3a9 9 0 013.5 3.7 12 12 0 010 10.8 9 9 0 01-3.5 3.7c-1.5.9-3.3 1.3-5.3 1.3s-3.8-.5-5.3-1.3zm9.3-2.2a7 7 0 002.6-2.8c.6-1.2.9-2.5.9-4.1s-.3-2.9-.9-4.1a7 7 0 00-2.6-2.8c-1.1-.7-2.5-1-4-1-1.6 0-2.9.3-4 1a7 7 0 00-2.6 2.8c-.6 1.2-.9 2.5-.9 4.1s.3 2.9.9 4.1a7 7 0 002.6 2.8c1.1.7 2.5 1 4 1 1.6 0 2.9-.3 4-1z"/></g></svg>