<?xml version="1.0" encoding="utf-8"?>
<!-- Generator: Adobe Illustrator 25.0.0, SVG Export Plug-In . SVG Version: 6.00 Build 0)  -->
<svg version="1.1" id="Layer_1" xmlns="http://www.w3.org/2000/svg" xmlns:xlink="http://www.w3.org/1999/xlink" x="0px" y="0px"
	 viewBox="0 0 169.9 32" style="enable-background:new 0 0 169.9 32;" xml:space="preserve">
<style type="text/css">
	.st0{fill:url(#SVGID_1_);}
	.st1{fill:url(#SVGID_2_);}
	.st2{fill:url(#SVGID_3_);}
	.st3{fill:url(#SVGID_4_);}
	.st4{fill:url(#SVGID_5_);}
	.st5{fill:url(#SVGID_6_);}
	.st6{fill:url(#SVGID_7_);}
	.st7{fill:url(#SVGID_8_);}
	.st8{fill:url(#SVGID_9_);}
	.st9{fill:#FDBA19;}
</style>
<g>
	
		<linearGradient id="SVGID_1_" gradientUnits="userSpaceOnUse" x1="1.6392" y1="63.7521" x2="28.6844" y2="36.7069" gradientTransform="matrix(1 0 0 -1 0 64.0893)">
		<stop  offset="0" style="stop-color:#FFB700"/>
		<stop  offset="1" style="stop-color:#FFD91D"/>
	</linearGradient>
	<path class="st0" d="M32.5,1l-4.2-0.7c-0.3-0.1-0.6,0.2-0.6,0.5l0,0L25,18.4h-1.8l0.6-4.7c0.1-0.3-0.2-0.6-0.5-0.6l0.2-1.3l1-0.8
		c0.1-0.1,0.2-0.2,0.2-0.4L25.7,5l0,0l0,0l0.2-1c0.1-0.3-0.2-0.6-0.5-0.6l-4.2-0.7c-0.3-0.1-0.6,0.2-0.6,0.5l-1,6.7
		c0,0.2,0,0.3,0.1,0.4l0.8,1l-0.2,1.3l0,0c-0.3-0.1-0.6,0.2-0.6,0.4l-1,5.4h-0.9l-0.1-4.7c0-0.3-0.3-0.5-0.5-0.5v-1.4l0.9-0.9
		c0.1-0.1,0.2-0.2,0.2-0.4V3.7c0-0.3-0.2-0.5-0.5-0.5c-0.1,0-0.2,0-0.2,0.1l-4.2,2.1c-0.2,0.1-0.3,0.3-0.3,0.5v4.7
		c0,0.2,0.1,0.3,0.2,0.4l0.9,0.9v1.4c-0.3,0-0.5,0.2-0.5,0.5l-0.2,4.7h-1.2c-0.5-1.9-0.9-3.4-1.1-4.9L9.6,5.3l0.5-0.1
		c0.1,0,0.1,0,0.1-0.1l4.5-1.9C14.9,3.1,15,2.9,15,2.7l-0.4-2.1c-0.1-0.3-0.3-0.4-0.5-0.5L9.3,0C9.2,0,9.2,0,9.2,0L0.5,1.7
		C0.2,1.7,0,2,0,2.3l0.8,4.1c0.1,0.3,0.4,0.5,0.6,0.4l0,0L5.5,6L7,14.3c0.2,1.2,0.4,2.5,0.6,4.1h-1l-1.4-7.6C5,9.8,4.2,9.3,3.4,9.4
		c-0.9,0.2-1.4,1-1.3,1.8l1.3,7H1.1c-0.3,0-0.5,0.2-0.5,0.5V21c0,0.3,0.2,0.5,0.5,0.5h0.5v8.4c0,1.2,1,2.1,2.1,2.1h3.6v-1.1H3.7
		c-0.6,0-1.1-0.5-1.1-1.1v-8.3h2.6v2.6c0,0.3,0.2,0.5,0.5,0.5h1.6v1.1h1.1v-1.1h1.6c0.3,0,0.5-0.2,0.5-0.5v-2.6H12v3.9h1.1v-3.9h6.3
		v3.7h1.1v-3.7H22v2.6c0,0.3,0.2,0.5,0.5,0.5h1.6v1.1h1.1v-1.1h1.5c0.3,0,0.5-0.2,0.5-0.5v-2.6h2.6v3.7h1.1v-3.7h0.5
		c0.3,0,0.5-0.2,0.5-0.5v-2.1c0-0.3-0.2-0.5-0.5-0.5h-1.1l2.6-16.8C33,1.3,32.8,1,32.5,1L32.5,1z M22.8,14l-0.2,1.1l-2.2-0.4l0.2-1
		L22.8,14z M24.8,4.3l-0.1,0.5c-0.1,0.3-0.3,0.5-0.6,0.5l-2-0.4c-0.3-0.1-0.5-0.3-0.5-0.6l0,0l0.1-0.5L24.8,4.3z M21.5,10.8l-0.8-1
		l0.6-4C21.5,5.9,21.7,6,21.9,6L24,6.3c0.1,0,0.2,0,0.3,0c0.1,0,0.2,0,0.3-0.1l-0.6,4l-1,0.8c-0.1,0.1-0.2,0.2-0.2,0.4L22.4,13
		l-1-0.2l0.3-1.6C21.6,11.1,21.6,10.9,21.5,10.8L21.5,10.8z M20.3,15.7l2.2,0.4l-0.3,2.3h-2.4L20.3,15.7z M16.7,14.2l0.1,1.1h-2.2
		l0.1-1.1H16.7z M17.3,4.6V6l-3.1,1.6V6.1L17.3,4.6z M15,11.2l-0.9-0.9V8.8l3.1-1.6v3.1l-0.9,0.9c-0.1,0.1-0.2,0.2-0.2,0.4v1.6h-1.1
		v-1.6C15.1,11.4,15.1,11.3,15,11.2L15,11.2z M14.6,16.3h2.2l0.1,2.1h-2.3L14.6,16.3z M1.1,2.6l8.2-1.5l4.4,0.2l0.2,1.2l-4,1.7
		L1.7,5.7L1.1,2.6z M8.1,14.1L6.5,5.9l2.1-0.4l1.5,8.3c0.3,1.4,0.6,2.9,1.1,4.7H8.7C8.5,16.8,8.3,15.4,8.1,14.1L8.1,14.1z M4.8,14
		l-1.1,0.2l-0.2-1l1-0.2L4.8,14z M3.2,10.7c0.2-0.3,0.5-0.3,0.7-0.2c0.1,0.1,0.2,0.2,0.2,0.4l0.2,1l-1,0.2l-0.2-1
		C3.1,11,3.1,10.8,3.2,10.7L3.2,10.7z M3.9,15.2l1-0.2l0.6,3.3H4.5L3.9,15.2z M9.4,23.6H8.4v-1.1H7.3v1.1H6.2v-2.1h3.2V23.6z
		 M26.2,23.6h-1.1v-1.1h-1v1.1H23v-2.1h3.1C26.2,21.6,26.2,23.6,26.2,23.6z M30.9,20.5H1.6v-1.1h29.3V20.5z M29.3,18.4h-3.2l0.2-1.4
		l1,0.2l0.2-1l-1-0.2l0.3-1.6l1,0.2l0.2-1l-1-0.2l0.3-1.6l1,0.2l0.2-1l-1-0.2l0.3-1.6l1,0.2l0.2-1l-1-0.2l0.3-1.6l1,0.2l0.2-1
		l-1-0.2l0.3-1.6l1,0.2l0.2-1l-1-0.2l0.3-1.6L31.8,2L29.3,18.4z"/>
	<g>
		
			<linearGradient id="SVGID_2_" gradientUnits="userSpaceOnUse" x1="8.2445" y1="34.5659" x2="9.0107" y2="34.5659" gradientTransform="matrix(1 0 0 -1 0 64.0893)">
			<stop  offset="0" style="stop-color:#FFB700"/>
			<stop  offset="1" style="stop-color:#FFBD1A"/>
		</linearGradient>
		<path class="st1" d="M8.6,27.1c-0.2,0-0.4,0.2-0.4,0.4v4.1c0,0.2,0.2,0.4,0.4,0.4C8.8,32,9,31.8,9,31.5v-4.1
			C9,27.3,8.8,27.1,8.6,27.1z"/>
	</g>
	<g>
		
			<linearGradient id="SVGID_3_" gradientUnits="userSpaceOnUse" x1="10.6825" y1="34.5659" x2="11.4488" y2="34.5659" gradientTransform="matrix(1 0 0 -1 0 64.0893)">
			<stop  offset="0" style="stop-color:#FFB700"/>
			<stop  offset="1" style="stop-color:#FFBD1A"/>
		</linearGradient>
		<path class="st2" d="M11,27.1c-0.2,0-0.4,0.2-0.4,0.4v4.1c0,0.2,0.2,0.4,0.4,0.4c0.2,0,0.4-0.2,0.4-0.4v-4.1
			C11.5,27.3,11.2,27.1,11,27.1z"/>
	</g>
	<g>
		
			<linearGradient id="SVGID_4_" gradientUnits="userSpaceOnUse" x1="13.1379" y1="34.5659" x2="13.9042" y2="34.5659" gradientTransform="matrix(1 0 0 -1 0 64.0893)">
			<stop  offset="0" style="stop-color:#FFB700"/>
			<stop  offset="1" style="stop-color:#FFBD1A"/>
		</linearGradient>
		<path class="st3" d="M13.5,27.1c-0.2,0-0.4,0.2-0.4,0.4v4.1c0,0.2,0.2,0.4,0.4,0.4c0.2,0,0.4-0.2,0.4-0.4v-4.1
			C13.9,27.3,13.7,27.1,13.5,27.1z"/>
	</g>
	<g>
		
			<linearGradient id="SVGID_5_" gradientUnits="userSpaceOnUse" x1="15.5759" y1="34.5659" x2="16.3422" y2="34.5659" gradientTransform="matrix(1 0 0 -1 0 64.0893)">
			<stop  offset="0" style="stop-color:#FFB700"/>
			<stop  offset="1" style="stop-color:#FFBD1A"/>
		</linearGradient>
		<path class="st4" d="M16,27.1c-0.2,0-0.4,0.2-0.4,0.4v4.1c0,0.2,0.2,0.4,0.4,0.4c0.2,0,0.4-0.2,0.4-0.4v-4.1
			C16.4,27.3,16.2,27.1,16,27.1z"/>
	</g>
	<g>
		
			<linearGradient id="SVGID_6_" gradientUnits="userSpaceOnUse" x1="18.014" y1="34.5659" x2="18.7802" y2="34.5659" gradientTransform="matrix(1 0 0 -1 0 64.0893)">
			<stop  offset="0" style="stop-color:#FFB700"/>
			<stop  offset="1" style="stop-color:#FFBD1A"/>
		</linearGradient>
		<path class="st5" d="M18.4,27.1c-0.2,0-0.4,0.2-0.4,0.4v4.1c0,0.2,0.2,0.4,0.4,0.4c0.2,0,0.4-0.2,0.4-0.4v-4.1
			C18.8,27.3,18.6,27.1,18.4,27.1z"/>
	</g>
	<g>
		
			<linearGradient id="SVGID_7_" gradientUnits="userSpaceOnUse" x1="20.3475" y1="36.0345" x2="23.5517" y2="36.0345" gradientTransform="matrix(1 0 0 -1 0 64.0893)">
			<stop  offset="0" style="stop-color:#FFB700"/>
			<stop  offset="1" style="stop-color:#FFBD1A"/>
		</linearGradient>
		<path class="st6" d="M21.9,26.4c-0.9,0-1.6,0.7-1.6,1.6c0,0.9,0.7,1.6,1.6,1.6s1.6-0.7,1.6-1.6C23.6,27.1,22.8,26.4,21.9,26.4z
			 M21.9,28.9c-0.5,0-0.9-0.4-0.9-0.9c0-0.5,0.4-0.9,0.9-0.9c0.5,0,0.9,0.4,0.9,0.9C22.8,28.5,22.4,28.9,21.9,28.9z"/>
	</g>
	<g>
		
			<linearGradient id="SVGID_8_" gradientUnits="userSpaceOnUse" x1="27.6789" y1="36.0345" x2="30.8831" y2="36.0345" gradientTransform="matrix(1 0 0 -1 0 64.0893)">
			<stop  offset="0" style="stop-color:#FFB700"/>
			<stop  offset="1" style="stop-color:#FFBD1A"/>
		</linearGradient>
		<path class="st7" d="M29.3,26.4c-0.9,0-1.6,0.7-1.6,1.6c0,0.9,0.7,1.6,1.6,1.6c0.9,0,1.6-0.7,1.6-1.6
			C30.9,27.1,30.2,26.4,29.3,26.4z M29.3,28.9c-0.5,0-0.9-0.4-0.9-0.9c0-0.5,0.4-0.9,0.9-0.9c0.5,0,0.9,0.4,0.9,0.9
			C30.1,28.5,29.7,28.9,29.3,28.9z"/>
	</g>
	<g>
		
			<linearGradient id="SVGID_9_" gradientUnits="userSpaceOnUse" x1="24.0219" y1="36.0345" x2="27.2261" y2="36.0345" gradientTransform="matrix(1 0 0 -1 0 64.0893)">
			<stop  offset="0" style="stop-color:#FFB700"/>
			<stop  offset="1" style="stop-color:#FFBD1A"/>
		</linearGradient>
		<path class="st8" d="M25.6,26.4c-0.9,0-1.6,0.7-1.6,1.6c0,0.9,0.7,1.6,1.6,1.6s1.6-0.7,1.6-1.6C27.3,27.1,26.5,26.4,25.6,26.4z
			 M25.6,28.9c-0.5,0-0.9-0.4-0.9-0.9c0-0.5,0.4-0.9,0.9-0.9c0.5,0,0.9,0.4,0.9,0.9C26.4,28.5,26.1,28.9,25.6,28.9z"/>
	</g>
</g>
<g>
	<path class="st9" d="M44.3,26.2c-2.4,0-4.2-0.7-5.6-2.2c-1.4-1.5-2.1-3.5-2.1-6.1c0-2.6,0.7-4.6,2.1-6.1c1.4-1.5,3.2-2.2,5.6-2.2
		c1.3,0,2.4,0.3,3.5,0.8c1,0.5,1.9,1.2,2.5,2.1c0.6,0.9,1,2,1.1,3.2h-3.3c-0.2-1-0.6-1.8-1.3-2.4c-0.7-0.6-1.5-0.9-2.5-0.9
		c-1.3,0-2.3,0.5-3.1,1.5c-0.8,1-1.1,2.3-1.1,4c0,1.7,0.4,3.1,1.1,4.1s1.8,1.5,3.1,1.5c1,0,1.8-0.3,2.5-0.8c0.7-0.6,1.1-1.3,1.3-2.3
		h3.3c-0.2,1.8-0.9,3.2-2.2,4.3C47.9,25.7,46.2,26.2,44.3,26.2z"/>
	<path class="st9" d="M56.8,20V26h-3.4V9.8H60c1.8,0,3.3,0.5,4.3,1.4c1,0.9,1.5,2.2,1.5,3.8c0,1.1-0.3,2-0.8,2.8
		c-0.5,0.8-1.2,1.4-2.2,1.8l3.4,6.4h-3.8l-3-5.9H56.8z M56.8,12.5v5.1h2.9c0.8,0,1.5-0.2,2-0.7s0.7-1.1,0.7-1.9
		c0-0.8-0.2-1.4-0.7-1.9c-0.5-0.5-1.2-0.7-2-0.7H56.8z"/>
	<path class="st9" d="M78.7,26L77.4,22h-5.7L70.5,26h-3.5l5.6-16.1h4L82.2,26H78.7z M74.6,12.9l-2.1,6.6h4.2L74.6,12.9L74.6,12.9z"
		/>
	<path class="st9" d="M87.3,26h-3.4V9.8h10.6v2.8h-7.2v4.3h6.6v2.7h-6.6V26z"/>
	<path class="st9" d="M103.7,26h-3.4V12.6h-4.7V9.8h12.7v2.8h-4.7V26z"/>
	<path class="st9" d="M111.7,25.6c-0.4,0.4-0.8,0.5-1.3,0.5c-0.5,0-0.9-0.2-1.3-0.5c-0.4-0.3-0.5-0.8-0.5-1.3c0-0.5,0.2-0.9,0.5-1.3
		c0.3-0.4,0.8-0.5,1.3-0.5c0.5,0,0.9,0.2,1.3,0.5c0.4,0.4,0.5,0.8,0.5,1.3C112.2,24.8,112.1,25.2,111.7,25.6z"/>
	<path class="st9" d="M118.3,26H115V9.8h3.4V26z"/>
	<path class="st9" d="M124.3,26H121V9.8h2.8l7.5,10.5h0.1V9.8h3.2V26h-2.8l-7.5-10.6h-0.1V26z"/>
	<path class="st9" d="M140.5,25.6c-0.4,0.4-0.8,0.5-1.3,0.5c-0.5,0-0.9-0.2-1.3-0.5c-0.4-0.3-0.5-0.8-0.5-1.3c0-0.5,0.2-0.9,0.5-1.3
		c0.3-0.4,0.8-0.5,1.3-0.5c0.5,0,0.9,0.2,1.3,0.5c0.4,0.4,0.5,0.8,0.5,1.3C141,24.8,140.8,25.2,140.5,25.6z"/>
	<path class="st9" d="M149.4,26H146V12.6h-4.7V9.8H154v2.8h-4.7V26z"/>
	<path class="st9" d="M169.9,26h-3.4v-6.8h-7.3V26h-3.4V9.8h3.4v6.6h7.3V9.8h3.4V26z"/>
</g>
</svg>
