<svg xmlns="http://www.w3.org/2000/svg" baseProfile="tiny" version="1.2" viewBox="0 0 512 512"><defs/><path fill="#F48321" d="M327 207l20-52c3-10 10-16 22-16h124c13 0 16 5 12 17l-81 230c-3 11-11 17-23 17l-147-1c5-4 10-9 12-15l61-180z"/><path fill="#EC1D25" d="M99 369c-13 3-20-3-24-15L6 125c-3-11 1-15 12-15h118c12-1 18 5 22 16l16 55-4 6c-4 2-4 7-5 10l-52 148c-3 9-7 17-14 24z"/><path fill="#FDCB02" d="M170 187l4-6 127-1c19 0 20 16 26 27l-61 180c-2 6-7 11-12 15-14 2-22-4-26-17l-5-15-2-7-51-176z"/><path fill="#9D0B0E" d="M170 187l52 176 1 7-124-1c7-7 11-15 14-24l52-148c1-3 1-8 5-10z"/></svg>